<?xml version="1.0" encoding="UTF-8"?>
<svg version="1.1" xmlns="http://www.w3.org/2000/svg" width="3932" height="2929">
<path d="M0 0 C0.86345919 -0.00286317 1.72691838 -0.00572635 2.616543 -0.00867629 C5.51967163 -0.01585149 8.42258944 -0.00875386 11.32571603 -0.00176666 C13.43629607 -0.00400047 15.54687533 -0.00711077 17.65745293 -0.01101846 C23.49493946 -0.01925791 29.3323613 -0.0149584 35.16984786 -0.00872673 C41.53000758 -0.00413525 47.89015614 -0.01112934 54.25031365 -0.01666037 C65.45288181 -0.02478517 76.655431 -0.02547699 87.85800098 -0.02124848 C99.94587684 -0.01672486 112.03374114 -0.01658015 124.12161689 -0.02171391 C125.27017622 -0.02219749 125.27017622 -0.02219749 126.44193877 -0.02269084 C130.35137084 -0.02435582 134.26080287 -0.02608955 138.1702349 -0.0278459 C166.74802528 -0.04052946 195.32581011 -0.04326918 223.90360285 -0.04101095 C252.87832864 -0.03874854 281.85304931 -0.04080533 310.8277743 -0.04815588 C312.6739341 -0.04861987 314.52009389 -0.04908381 316.36625369 -0.04954772 C323.80976285 -0.05142675 331.25327201 -0.05333934 338.69678115 -0.0552901 C359.68101893 -0.06078144 380.66525684 -0.06554006 401.6494949 -0.06979404 C403.09202855 -0.07008669 403.09202855 -0.07008669 404.5637043 -0.07038525 C459.28668526 -0.08140168 514.00966652 -0.08200461 568.7326484 -0.08282697 C577.09917394 -0.08295346 585.46569948 -0.08308651 593.83222502 -0.08322807 C595.92917157 -0.08326346 598.02611811 -0.08329821 600.12306465 -0.08333232 C647.16218417 -0.08410752 694.20130309 -0.08846333 741.24042232 -0.09359283 C751.73509216 -0.09473594 762.229762 -0.09584388 772.72443184 -0.09695409 C773.76615265 -0.09706434 774.80787345 -0.09717458 775.88116155 -0.09728816 C782.20453826 -0.09795716 788.52791497 -0.0986247 794.85129169 -0.09929129 C798.0189191 -0.09962545 801.18654652 -0.09996047 804.35417393 -0.10029557 C853.60710673 -0.10549956 902.86003958 -0.10996008 952.11297251 -0.11365996 C953.18616836 -0.1137407 954.2593642 -0.11382144 955.36508113 -0.11390462 C1023.76331244 -0.11903164 1092.16154342 -0.12082954 1160.55977491 -0.12030396 C1163.92366434 -0.12027845 1167.28755376 -0.12025452 1170.65144318 -0.12023113 C1194.28474003 -0.12006645 1217.91803687 -0.11986103 1241.55133371 -0.11964538 C1248.3276685 -0.11958384 1255.10400329 -0.11952371 1261.88033808 -0.11946375 C1267.53268953 -0.11941356 1273.18504098 -0.11936198 1278.83739243 -0.11930752 C1385.60476943 -0.11828459 1492.37214342 -0.12112206 1599.13951899 -0.14000235 C1600.26366204 -0.14020106 1601.38780508 -0.14039978 1602.54601307 -0.14060452 C1637.66954832 -0.14682722 1672.79308347 -0.1535602 1707.9166186 -0.16038809 C1743.95540514 -0.16739079 1779.99419169 -0.17433165 1816.03297831 -0.18091688 C1817.14259858 -0.18111994 1818.25221885 -0.18132299 1819.39546397 -0.18153219 C1888.87407432 -0.19422798 1958.3526838 -0.20207374 2027.83129527 -0.20463286 C2028.90416469 -0.20467291 2029.97703412 -0.20471297 2031.08241474 -0.20475424 C2078.19733914 -0.20650478 2125.3122635 -0.20714446 2172.42718793 -0.20657246 C2191.38086837 -0.2063439 2210.33454881 -0.20623176 2229.28822925 -0.20616582 C2232.43089787 -0.20615302 2235.57356649 -0.20613487 2238.7162351 -0.20611552 C2286.803321 -0.20584244 2334.89040414 -0.20854003 2382.97748877 -0.22020588 C2384.01499297 -0.22045722 2385.05249717 -0.22070857 2386.1214409 -0.22096753 C2402.81171337 -0.22502574 2419.50198577 -0.22931373 2436.19225818 -0.23362114 C2483.55905704 -0.24583551 2530.9258522 -0.25592898 2578.29265286 -0.2516788 C2579.2532665 -0.25159338 2580.21388014 -0.25150795 2581.20360329 -0.25141993 C2602.15841202 -0.24951345 2623.11322043 -0.24648207 2644.06802883 -0.2423465 C2652.42470646 -0.2407138 2660.78138411 -0.23922657 2669.13806178 -0.23778448 C2670.04964686 -0.23762318 2670.96123194 -0.23746188 2671.90044082 -0.23729568 C2700.83784843 -0.23224402 2729.77523548 -0.23949316 2758.71263951 -0.25382012 C2787.1955859 -0.26787016 2815.67850363 -0.26982344 2844.16145005 -0.25404625 C2848.05932622 -0.25188886 2851.95720245 -0.24987114 2855.85507874 -0.24793714 C2856.61818869 -0.2475531 2857.38129864 -0.24716907 2858.16753313 -0.2467734 C2870.21641552 -0.24107457 2882.26525033 -0.24874705 2894.31412511 -0.26209834 C2906.09286005 -0.27487823 2917.87150657 -0.27320283 2929.65023933 -0.25691059 C2935.92492171 -0.24864147 2942.19942991 -0.24672976 2948.47410205 -0.26241197 C2954.16366863 -0.27651624 2959.85291287 -0.27232098 2965.54246261 -0.25334459 C2967.58620742 -0.24975559 2969.62997774 -0.25288556 2971.67369805 -0.26351684 C2985.90915717 -0.33258657 2997.73949195 0.38297191 3008.74572016 10.563733 C3009.57072016 11.450608 3010.39572016 12.337483 3011.24572016 13.251233 C3011.74200923 13.75396738 3012.23829829 14.25670175 3012.74962641 14.7746705 C3019.82721858 22.33119748 3022.33826856 31.63807718 3022.55822016 41.813733 C3022.59560298 42.92877207 3022.63298579 44.04381113 3022.67150141 45.19263925 C3022.08784163 55.54555623 3016.63773794 64.70920547 3011.43322016 73.376233 C3010.42688078 75.08563142 3009.42055916 76.79504059 3008.41530634 78.50507822 C3007.37955411 80.26394434 3006.3391104 82.01996832 3005.29796626 83.77564707 C3002.06431805 89.23877352 2998.90986808 94.74767747 2995.74572016 100.251233 C2994.49607754 102.41810581 2993.24607669 104.58477207 2991.99572016 106.751233 C2991.06759516 108.359983 2991.06759516 108.359983 2990.12072016 110.001233 C2978.24572016 130.58456634 2966.37072016 151.16789967 2954.49572016 171.751233 C2953.56747431 173.3602247 2953.56747431 173.3602247 2952.62047602 175.00172129 C2951.37136498 177.16680371 2950.12217887 179.33184283 2948.87291743 181.49683847 C2945.73369707 186.93739006 2942.59581454 192.37870516 2939.46056391 197.8215455 C2933.43824688 208.273295 2927.39902679 218.71422848 2921.30822016 229.126233 C2915.88613318 238.39687231 2910.54248005 247.71059999 2905.22548701 257.04169931 C2900.05485739 266.11388711 2894.820606 275.14695649 2889.54357173 284.15772714 C2884.28208515 293.15618381 2879.10913479 302.20415282 2873.96276118 311.26881113 C2871.02538515 316.43594161 2868.06960065 321.5855866 2864.97618891 326.66138925 C2864.49762446 327.45037607 2864.01906001 328.23936289 2863.5259936 329.05225839 C2862.66128307 330.46833981 2861.78637207 331.87826808 2860.89904048 333.28028574 C2858.82570233 336.49636317 2858.82570233 336.49636317 2858.40787395 340.18101489 C2859.50995139 342.90411687 2861.04438304 344.42279631 2863.12391581 346.4997228 C2863.9653769 347.34741333 2864.806838 348.19510386 2865.67379792 349.06848197 C2866.61045979 349.99669111 2867.54712166 350.92490025 2868.51216723 351.88123693 C2869.5124463 352.88312739 2870.51206596 353.88567656 2871.51108249 354.88882595 C2874.27524639 357.66056343 2877.04874134 360.42279999 2879.82375765 363.18366635 C2882.83466982 366.18250911 2885.83688865 369.19003302 2888.84018745 372.19649693 C2894.11072753 377.47018283 2899.38682429 382.73825829 2904.66654231 388.00275507 C2912.5175286 395.83117044 2920.3599184 403.66815485 2928.20049165 411.50699774 C2941.38938001 424.6925264 2954.58510735 437.87119049 2967.78456523 451.04613771 C2980.86106156 464.09845464 2993.93403094 477.15428888 3007.00243784 490.21470537 C3007.81433294 491.026104 3008.62622804 491.83750263 3009.46272602 492.6734891 C3013.58581214 496.79410456 3017.70882435 500.91479396 3021.83180109 505.03551885 C3030.21681713 513.41591866 3038.6023187 521.7958326 3046.98797061 530.17559614 C3047.82751444 531.01455069 3048.66705827 531.85350524 3049.53204282 532.71788265 C3069.52538393 552.69694363 3089.52366449 572.67105838 3109.52257563 592.64454355 C3110.39787829 593.51873603 3111.27318094 594.39292851 3112.17500792 595.29361167 C3119.26706673 602.3766747 3126.35913815 609.45972511 3133.45123009 616.54275498 C3153.87121616 636.93666404 3174.28999577 657.33178077 3194.70812251 677.72755136 C3195.58265855 678.60112671 3196.4571946 679.47470205 3197.35823174 680.37474937 C3217.31700408 700.3116356 3237.27473465 720.2495636 3257.22988345 740.19007673 C3258.06813881 741.0277157 3258.90639416 741.86535467 3259.7700512 742.72837664 C3268.13767408 751.08987869 3276.50516099 759.45151678 3284.87242203 767.81338092 C3302.86566263 785.7949181 3320.86192785 803.77341422 3338.86418867 821.74592106 C3351.98623854 834.84633445 3365.10498595 847.95004646 3378.22022688 861.05727656 C3386.01926745 868.85130074 3393.82116826 876.64243722 3401.62707624 884.42958361 C3406.83503121 889.62555494 3412.03939274 894.82510672 3417.24080543 900.02762714 C3420.20840697 902.99564333 3423.17760789 905.9620115 3426.15122199 908.92400481 C3428.85406118 911.61633569 3431.55229088 914.31319659 3434.2468534 917.01381027 C3435.67847619 918.44624544 3437.11503918 919.87373794 3438.55177124 921.30104845 C3439.39823937 922.1512425 3440.24470751 923.00143654 3441.11682619 923.87739404 C3441.84737168 924.60695635 3442.57791716 925.33651865 3443.33060039 926.08818891 C3445.32786932 928.34401689 3446.78008003 930.62481584 3448.24572016 933.251233 C3448.77165766 934.18515879 3448.77165766 934.18515879 3449.30822016 935.13795175 C3457.43141203 950.74124946 3458.17685962 967.26632318 3453.41368891 983.9465455 C3448.80031534 996.99976974 3439.82551846 1006.10463367 3430.21672376 1015.6562769 C3428.86455499 1017.01142207 3427.51304423 1018.36722406 3426.16212958 1019.72361942 C3422.43784607 1023.45918077 3418.70426661 1027.18532894 3414.96913751 1030.91004164 C3410.89596281 1034.9751705 3406.83151615 1039.04901045 3402.76594679 1043.1217429 C3395.13703296 1050.76151942 3387.50133976 1058.39447911 3379.86258751 1066.0244175 C3372.60390116 1073.27488691 3365.3488123 1080.52893676 3358.09686507 1087.78614663 C3357.60713966 1088.2762233 3357.11741426 1088.76629997 3356.61284869 1089.27122745 C3354.11238227 1091.7735164 3351.61196796 1094.27585742 3349.11157111 1096.77821587 C3330.84591307 1115.05797436 3312.5728418 1133.33030789 3294.2960303 1151.59891405 C3275.76836718 1170.11830397 3257.24396887 1188.64095052 3238.72356059 1207.16759577 C3238.13970045 1207.75164945 3237.55584031 1208.33570313 3236.95428744 1208.93745541 C3231.60367142 1214.28984601 3226.25308897 1219.64227016 3220.90254684 1224.99473464 C3207.48484357 1238.41725082 3194.06661769 1251.83924449 3180.64803804 1265.26088455 C3180.03311276 1265.87595053 3179.41818748 1266.49101652 3178.78462809 1267.12472087 C3148.46199361 1297.45419399 3118.13363466 1327.77794118 3087.80471255 1358.10112657 C3086.47592078 1359.42966743 3085.14712902 1360.7582083 3083.81833726 1362.08674918 C3083.15978558 1362.74517649 3082.50123389 1363.40360381 3081.8227261 1364.08198347 C3073.13839674 1372.76467331 3064.45408223 1381.447378 3055.76980735 1390.13012233 C3054.77411254 1391.12564092 3054.77411254 1391.12564092 3053.75830268 1392.14127099 C3023.01149322 1422.88267916 2992.26802585 1453.62742868 2961.52530024 1484.37292081 C2958.17254855 1487.72597189 2954.81979041 1491.07901652 2951.467033 1494.43206188 C2941.36169447 1504.53827216 2931.25636547 1514.64449198 2921.15105618 1524.75073149 C2890.33503246 1555.56958893 2859.5184922 1586.38792983 2828.70150687 1617.20582571 C2827.67222162 1618.23514187 2827.67222162 1618.23514187 2826.62214272 1619.2852523 C2782.17629809 1663.73241334 2737.72814391 1708.17726402 2693.27832915 1752.62045469 C2692.56861809 1753.33006039 2691.85890704 1754.03966609 2691.12768959 1754.77077499 C2667.35507237 1778.53986305 2643.58233567 1802.3088316 2619.80958675 1826.07778794 C2547.91450209 1897.96141061 2476.02201003 1969.84762295 2347.64334196 2098.24437873 C2323.8779638 2122.01354644 2300.11256362 2145.78269212 2276.34705473 2169.55172911 C2275.63757944 2170.26131014 2274.92810414 2170.97089117 2274.19712959 2171.70197466 C2229.77559776 2216.13012104 2185.35223283 2260.55643376 2140.92672659 2304.98060598 C2139.89777055 2306.00953163 2139.89777055 2306.00953163 2138.84802751 2307.05924365 C2108.04855538 2337.85779567 2077.24858594 2368.65585032 2046.4481563 2399.45344477 C2036.3469384 2409.553734 2026.24574332 2419.65404607 2016.14455602 2429.75436591 C2012.79363849 2433.10499546 2009.44271892 2436.45562297 2006.09179461 2439.80624574 C1975.34482165 2470.55046035 1944.5988315 2501.29565678 1913.85595848 2532.0439712 C1913.19262084 2532.70742576 1912.5292832 2533.37088031 1911.84584442 2534.05443955 C1903.16691275 2542.73490666 1894.48802732 2551.41542001 1885.80914749 2560.09593895 C1885.15115514 2560.75405553 1884.4931628 2561.41217212 1883.81523129 2562.09023163 C1882.48772635 2563.41798726 1881.16022151 2564.74574299 1879.83271679 2566.07349883 C1849.55112482 2596.36080398 1819.26863891 2626.64721347 1788.98072542 2656.92819717 C1788.36656089 2657.54222164 1787.75239635 2658.15624611 1787.11962077 2658.78887739 C1773.72271624 2672.18269194 1760.32537758 2685.57607215 1746.92761167 2698.96902507 C1741.58479424 2704.30993474 1736.24202979 2709.65089741 1730.8992808 2714.99187555 C1730.02505909 2715.86580289 1730.02505909 2715.86580289 1729.13317634 2716.75738533 C1710.62827379 2735.25610602 1692.12797695 2753.75942398 1673.63031851 2772.26538816 C1655.42526447 2790.47857589 1637.21567442 2808.68721437 1618.99941066 2826.88919091 C1616.50731581 2829.37933222 1614.01527307 2831.86952567 1611.52326144 2834.35975026 C1611.03537837 2834.84727936 1610.5474953 2835.33480847 1610.04482789 2835.83711118 C1602.80734423 2843.06960012 1595.57404128 2850.30625141 1588.34322914 2857.54540992 C1580.34867464 2865.54914625 1572.34932086 2873.54804224 1564.34312794 2881.5401374 C1560.3277132 2885.54878863 1556.31473317 2889.5597983 1552.30829351 2893.57742138 C1548.67722945 2897.21853409 1545.03940701 2900.85274546 1541.39594238 2904.48144839 C1540.08665521 2905.78785566 1538.77989512 2907.09680154 1537.47593844 2908.40852934 C1535.71031677 2910.18394874 1533.93573089 2911.9499017 1532.1585974 2913.71378727 C1531.40687589 2914.47636144 1531.40687589 2914.47636144 1530.63996809 2915.25434115 C1525.54391838 2920.27259864 1519.7477169 2923.19703937 1513.18322016 2925.938733 C1512.2022436 2926.35510019 1511.22126704 2926.77146738 1510.21056391 2927.20045175 C1503.19962702 2929.68522385 1495.97309836 2929.5344326 1488.62072016 2929.626233 C1487.50825923 2929.66361582 1486.39579829 2929.70099863 1485.24962641 2929.73951425 C1476.88255309 2929.82717858 1470.6914372 2927.98271386 1463.24572016 2924.251233 C1462.29265639 2923.80735382 1461.33959261 2923.36347463 1460.35764812 2922.90614456 C1450.15994486 2917.48304441 1441.88337942 2907.03165897 1433.75083925 2898.88515326 C1432.39773669 2897.5334212 1431.04441582 2896.18190765 1429.69089829 2894.83059111 C1425.97138267 2891.11585945 1422.25497213 2887.39803489 1418.53906197 2883.6796971 C1414.4810964 2879.62018681 1410.42022892 2875.56358109 1406.35973658 2871.50659847 C1399.21595862 2864.36819151 1392.07404463 2857.22792389 1384.93333577 2850.08644691 C1377.23198109 2842.38427411 1369.52956167 2834.68316861 1361.82582121 2826.98338206 C1361.33703674 2826.494847 1360.84825227 2826.00631193 1360.34465616 2825.50297277 C1358.35164146 2823.51098228 1356.35861894 2821.5189996 1354.36558656 2819.5270268 C1335.63914141 2800.81053621 1316.91516529 2782.09157739 1298.19262721 2763.37117853 C1279.72451232 2744.90518474 1261.25532847 2726.44026109 1242.7848437 2707.97663774 C1241.60717603 2706.79940517 1240.42950843 2705.62217253 1239.25184089 2704.44493983 C1234.50348129 2699.69833692 1229.75511488 2694.95174081 1225.00674061 2690.20515257 C1168.1081549 2633.32793873 1111.21480408 2576.44548977 1054.32245927 2519.56203347 C1034.99241061 2500.23500845 1015.66214346 2480.90820198 996.33170821 2461.58156361 C995.67365189 2460.92363641 995.01559557 2460.26570921 994.33759816 2459.58784482 C988.34747869 2453.59890085 982.35735739 2447.60995873 976.36723438 2441.62101831 C908.68642371 2373.9535617 841.00609308 2306.28562485 703.14048807 2168.43503103 C696.70346511 2161.99853253 690.26643572 2155.56204046 683.82940664 2149.12554807 C681.67971609 2146.97603672 679.53002566 2144.82652525 677.38033525 2142.67701376 C663.72391056 2129.02172615 650.06748137 2115.36644304 636.4110427 2101.71116941 C632.8080166 2098.10845062 629.20499118 2094.50573113 625.6019674 2090.90301001 C557.5398161 2022.84657964 489.47590192 1954.79191402 421.40538813 1886.74384775 C420.68859451 1886.02729035 419.97180088 1885.31073295 419.23328623 1884.5724617 C396.11608937 1861.46289295 372.99868224 1838.35353456 349.88124527 1815.244206 C327.6213806 1792.99214881 305.36155797 1770.74004956 283.10191752 1748.48776808 C282.39435227 1747.78043691 281.68678701 1747.07310575 280.95778039 1746.34434031 C236.65295963 1702.05415357 192.35055439 1657.76155182 148.05068614 1613.46641149 C147.36661301 1612.78241196 146.68253988 1612.09841242 145.97773726 1611.39368563 C115.93674118 1581.35591533 85.89627372 1551.31761642 55.85639615 1521.27872753 C43.77186269 1509.19459488 31.68726294 1497.11052853 19.60263128 1485.02649408 C17.59892595 1483.02288622 15.59522316 1481.01927581 13.5915208 1479.01566498 C-17.06532438 1448.36024888 -47.72374106 1417.70640669 -78.38680719 1387.05721297 C-79.37905862 1386.06541015 -79.37905862 1386.06541015 -80.39135553 1385.0535709 C-91.03272328 1374.41703182 -101.67421759 1363.78061937 -112.31572871 1353.14422372 C-142.51677022 1322.95769509 -172.71681632 1292.77017386 -202.90972446 1262.57550981 C-203.52208756 1261.96311194 -204.13445067 1261.35071407 -204.76537023 1260.71975869 C-218.12361088 1247.36071836 -231.48129723 1234.00112393 -244.83844025 1220.64098614 C-250.165239 1215.31301017 -255.49211153 1209.98510797 -260.81900762 1204.65722933 C-261.69062445 1203.78544581 -261.69062445 1203.78544581 -262.57984971 1202.8960505 C-281.02293738 1184.44950618 -299.47217457 1166.00912807 -317.92496584 1147.57229102 C-336.08907632 1129.42383443 -354.2471305 1111.26934349 -372.39634411 1093.10598868 C-374.8805439 1090.61985516 -377.36481371 1088.13379164 -379.84912558 1085.64777012 C-380.33548693 1085.1610687 -380.82184828 1084.67436727 -381.32294785 1084.17291732 C-389.46489154 1076.02566807 -397.61470174 1067.88633157 -405.76667886 1059.74912256 C-412.81563612 1052.71185244 -419.85738551 1045.66742567 -426.89318559 1038.61700119 C-430.88844489 1034.61384786 -434.88680351 1030.61393078 -438.894041 1026.62276481 C-442.52868559 1023.00258211 -446.15402634 1019.37334737 -449.77212442 1015.73662974 C-451.07229584 1014.43299542 -452.37582519 1013.13269926 -453.68310312 1011.83619142 C-467.55891874 998.06710464 -476.17753391 984.16066598 -476.31677984 964.126233 C-476.21293922 955.53378773 -475.16663278 948.20546338 -471.75427984 940.251233 C-471.4771314 939.52291269 -471.19998296 938.79459238 -470.91443609 938.04420175 C-466.51010402 927.75389596 -456.33750286 919.6889509 -448.55753969 911.93144502 C-447.55427903 910.92744285 -446.55123796 909.9232212 -445.54839398 908.91880282 C-442.80758354 906.17494695 -440.06369392 903.43418904 -437.31926555 900.69395252 C-434.32829198 897.70643246 -431.34024294 894.71598966 -428.35181455 891.72592404 C-423.11916281 886.49120389 -417.88466505 881.25833544 -412.64894079 876.02668848 C-404.8636707 868.24746426 -397.08128088 860.46536336 -389.29947164 852.68267734 C-376.20786719 839.58976023 -363.11393993 826.49916845 -350.01868223 813.40990534 C-337.0547895 800.45193184 -324.09193333 787.49292283 -311.13045667 774.5325326 C-309.92110392 773.32328295 -309.92110392 773.32328295 -308.6873198 772.08960402 C-304.59277959 767.99540216 -300.49825787 763.90118182 -296.40374326 759.80695436 C-267.41052842 730.81583932 -238.41499633 701.82704289 -209.4180982 672.83961191 C-181.24993103 644.68063071 -153.08281561 616.52059815 -124.91712163 588.35914316 C-123.61458643 587.05680524 -123.61458643 587.05680524 -122.28573738 585.72815747 C-113.56525574 577.00899437 -104.84479547 568.2898099 -96.12435084 559.57060979 C-78.36017217 541.80896726 -60.59585096 524.0474673 -42.83144353 506.28605356 C-42.01468459 505.46943191 -41.19792565 504.65281025 -40.35641643 503.81144249 C14.17524102 449.28898401 68.7102211 394.76984892 123.24572016 340.251233 C122.44645662 338.64448069 121.64625284 337.03819607 120.84564997 335.43211069 C120.40013694 334.53756111 119.95462391 333.64301153 119.49561049 332.72135439 C118.16690301 330.095469 116.7560245 327.54171045 115.25743891 325.0090455 C114.72441157 324.10283457 114.19138423 323.19662363 113.64220454 322.26295175 C113.07823969 321.31033457 112.51427485 320.35771738 111.93322016 319.376233 C106.63947078 310.3706444 101.41431537 301.32897191 96.24572016 292.251233 C91.29268547 283.55679348 86.30192977 274.88624927 81.24572016 266.251233 C76.21382123 257.65605834 71.24197095 249.02803084 66.30822016 240.376233 C56.39399318 222.99305354 46.41096849 205.65065889 36.30822016 188.376233 C30.56828823 178.55978793 24.91248736 168.69657906 19.27941157 158.81861582 C12.92648121 147.67970796 6.52025386 136.5719072 0.10460688 125.46900644 C-1.7648206 122.23298671 -3.63287239 118.99617723 -5.50037359 115.7590455 C-6.12025152 114.68461191 -6.74012945 113.61017832 -7.37879156 112.50318613 C-8.62443606 110.34333391 -9.8695573 108.18317982 -11.11414312 106.02271738 C-14.31213828 100.47337846 -17.52148318 94.93109812 -20.75037359 89.3996705 C-32.07518831 69.9630504 -32.07518831 69.9630504 -36.62927984 60.876233 C-36.94501958 60.24636484 -37.26075933 59.61649668 -37.58606695 58.9675416 C-41.94389913 50.02601781 -42.21131778 38.83704451 -40.07068609 29.16138925 C-39.13598065 26.70633305 -38.07370611 24.5213018 -36.75427984 22.251233 C-36.31857671 21.47521738 -35.88287359 20.69920175 -35.43396734 19.8996705 C-30.06842951 11.13302673 -22.34867792 4.51986719 -12.58657858 1.16146632 C-8.26833019 0.13581205 -4.4143409 -0.02629665 0 0 Z " fill="#D95F5F" transform="translate(475.7542798370123,-0.2512330040335655)"/>
<path d="M0 0 C7.88274648 4.39780391 11.65616045 12.37339419 15.61303711 20.10913086 C16.5303787 21.8583543 17.44775795 23.60756035 18.36824036 25.35513306 C18.99325197 26.54175359 19.61693678 27.72907391 20.23930359 28.91708374 C23.2200146 34.59412957 26.36767439 40.16872342 29.55053711 45.73413086 C33.96195685 53.47449534 38.26619326 61.26376987 42.48803711 69.10913086 C47.18952872 77.84177872 52.00540343 86.49984051 56.90649414 95.12182617 C61.28457836 102.83528327 65.5860154 110.58938991 69.86303711 118.35913086 C70.19969391 118.9706601 70.53635071 119.58218933 70.88320923 120.21224976 C71.22049042 120.82492706 71.55777161 121.43760437 71.90527344 122.06884766 C72.58648945 123.30624347 73.26772317 124.54362955 73.94897461 125.78100586 C74.45472267 126.69968193 74.45472267 126.69968193 74.97068787 127.63691711 C78.45926551 133.97055346 81.97253366 140.29040642 85.48803711 146.60913086 C90.69684654 155.97249602 95.88084277 165.34914729 101.05053711 174.73413086 C105.99595596 183.711529 110.97030444 192.67187546 115.98803711 201.60913086 C121.69282471 211.77012331 127.33444358 221.96491491 132.95678711 232.17163086 C137.44979568 240.3271963 141.96155462 248.47207645 146.48803711 256.60913086 C151.67361563 265.93211728 156.83860955 275.26615284 161.98803711 284.60913086 C169.08560131 297.48616484 176.21874219 310.34308255 183.3659668 323.19262695 C185.57473068 327.16401366 187.78148883 331.13651287 189.98803711 335.10913086 C190.77578351 336.5271074 191.56354432 337.94507593 192.35131836 339.36303711 C214.48022461 379.19506836 236.60913086 419.02709961 258.73803711 458.85913086 C259.35670654 459.97271973 259.97537598 461.08630859 260.61279297 462.23364258 C261.86366204 464.48523948 263.11447578 466.73686712 264.36523438 468.98852539 C267.4764862 474.58934531 270.58867581 480.18963991 273.70288086 485.78881836 C280.48967744 497.99364583 287.25564778 510.20961746 293.99700928 522.4395752 C300.68056982 534.56361957 307.39994005 546.66758776 314.12915039 558.76635742 C317.2506206 564.37959226 320.36917401 569.99444716 323.48803711 575.60913086 C324.73802329 577.85913854 325.98802329 580.10913854 327.23803711 582.35913086 C329.73803711 586.85913086 332.23803711 591.35913086 334.73803711 595.85913086 C335.35670654 596.97271973 335.97537598 598.08630859 336.61279297 599.23364258 C337.86366204 601.48523948 339.11447578 603.73686712 340.36523438 605.98852539 C343.4764862 611.58934531 346.58867581 617.18963991 349.70288086 622.78881836 C356.48967744 634.99364583 363.25564778 647.20961746 369.99700928 659.4395752 C377.29607862 672.68015858 384.63861863 685.89643223 391.98803711 699.10913086 C400.01481548 713.53957917 408.02575923 727.97839384 415.99700928 742.4395752 C423.29607862 755.68015858 430.63861863 768.89643223 437.98803711 782.10913086 C446.01481548 796.53957917 454.02575923 810.97839384 461.99700928 825.4395752 C468.68056982 837.56361957 475.39994005 849.66758776 482.12915039 861.76635742 C485.2506206 867.37959226 488.36917401 872.99444716 491.48803711 878.60913086 C492.73802329 880.85913854 493.98802329 883.10913854 495.23803711 885.35913086 C512.73803711 916.85913086 530.23803711 948.35913086 547.73803711 979.85913086 C548.35670654 980.97271973 548.97537598 982.08630859 549.61279297 983.23364258 C550.86366204 985.48523948 552.11447578 987.73686712 553.36523438 989.98852539 C556.4764862 995.58934531 559.58867581 1001.18963991 562.70288086 1006.78881836 C569.49004095 1018.99429953 576.25682119 1031.21068423 582.99801636 1043.44158936 C588.42451068 1053.28649343 593.87655919 1063.11693909 599.34130859 1072.94067383 C603.58959815 1080.58146635 607.81709592 1088.23344955 612.03518677 1095.89093018 C617.90794487 1106.55195161 623.8184333 1117.190806 629.77392578 1127.8059082 C639.59148126 1145.30779448 649.30929638 1162.86488218 658.99673462 1180.43902588 C665.68037806 1192.56325827 672.39984054 1204.66740885 679.12915039 1216.76635742 C682.2506206 1222.37959226 685.36917401 1227.99444716 688.48803711 1233.60913086 C689.73802329 1235.85913854 690.98802329 1238.10913854 692.23803711 1240.35913086 C699.73803711 1253.85913086 707.23803711 1267.35913086 714.73803711 1280.85913086 C715.35670654 1281.97271973 715.97537598 1283.08630859 716.61279297 1284.23364258 C717.86366204 1286.48523948 719.11447578 1288.73686712 720.36523438 1290.98852539 C723.4764862 1296.58934531 726.58867581 1302.18963991 729.70288086 1307.78881836 C736.49004095 1319.99429953 743.25682119 1332.21068423 749.99801636 1344.44158936 C755.42451068 1354.28649343 760.87655919 1364.11693909 766.34130859 1373.94067383 C771.26694225 1382.79970858 776.16300965 1391.6747788 781.05258179 1400.55374146 C786.5055252 1410.45338566 792.00966317 1420.32307499 797.56054688 1430.16821289 C806.17122066 1445.47579158 806.17122066 1445.47579158 804.98803711 1454.10913086 C802.93692759 1460.75682939 799.77811814 1466.75761056 793.54966628 1470.21436848 C788.34100277 1472.72810469 783.44843571 1472.66426022 777.75197035 1472.61282885 C776.63247445 1472.61868658 775.51297855 1472.62454431 774.35955853 1472.63057955 C770.59169606 1472.64538448 766.82447829 1472.63161361 763.05661869 1472.61808205 C760.32302618 1472.62063765 757.58945991 1472.62922396 754.85587958 1472.63751525 C748.88531359 1472.65240881 742.91489024 1472.65239809 736.94431562 1472.64273627 C728.00615174 1472.62834352 719.06811113 1472.63697356 710.12995058 1472.65009897 C694.89736555 1472.6717838 679.66482994 1472.67440649 664.43223381 1472.66670227 C648.99211226 1472.65895541 633.55202759 1472.65985086 618.11190796 1472.67132187 C616.64997703 1472.67239835 616.64997703 1472.67239835 615.15851215 1472.67349657 C611.18913948 1472.67644633 607.21976687 1472.67945511 603.2503943 1472.6825395 C562.9356605 1472.71382892 522.62095199 1472.71916533 482.30620821 1472.71422738 C476.73368913 1472.71355051 471.16117004 1472.71290631 465.58865094 1472.71229601 C464.4818568 1472.71217392 463.37506267 1472.71205184 462.23472931 1472.71192605 C437.71990549 1472.70938358 413.20508516 1472.71458258 388.69026237 1472.72134814 C383.09474461 1472.72288962 377.49922684 1472.72437907 371.90370907 1472.72587817 C369.65805302 1472.72648155 367.41239697 1472.72708532 365.16674092 1472.72768946 C364.05362073 1472.72798882 362.94050055 1472.72828818 361.79364944 1472.72859661 C359.54214749 1472.72920366 357.29064553 1472.72981303 355.03914358 1472.7304247 C291.14148267 1472.74777444 227.24382483 1472.75705584 163.34616184 1472.74852943 C162.16261327 1472.74837332 160.9790647 1472.74821721 159.75965102 1472.74805636 C146.56139457 1472.74631072 133.36313814 1472.74445219 120.16488171 1472.7425551 C118.37741966 1472.74229857 118.37741966 1472.74229857 116.55384725 1472.74203686 C106.65141737 1472.74061514 106.65141737 1472.74061514 102.09653855 1472.7399524 C25.8623543 1472.72887896 -50.37178153 1472.74396898 -126.60595703 1472.78149414 C-145.81601927 1472.79093826 -165.02608155 1472.80029915 -184.23614407 1472.80916786 C-185.41892081 1472.80971451 -186.60169756 1472.81026115 -187.82031603 1472.81082436 C-224.26202921 1472.82756148 -260.70373836 1472.83692576 -297.14545536 1472.83858299 C-298.2892145 1472.83863573 -299.43297364 1472.83868846 -300.61139214 1472.83874279 C-325.71699048 1472.83982425 -350.82258849 1472.83907968 -375.92818673 1472.83666336 C-384.91088602 1472.83581208 -393.89358533 1472.83508184 -402.87628464 1472.83440448 C-405.11102057 1472.83423387 -407.3457565 1472.834056 -409.58049243 1472.83387084 C-445.21793175 1472.83097097 -480.8553382 1472.84524075 -516.49276963 1472.86787876 C-553.37255001 1472.8911543 -590.25227161 1472.89233315 -627.13205224 1472.86819191 C-631.08951233 1472.86568815 -635.04697248 1472.8632812 -639.00443268 1472.86095047 C-639.97568361 1472.86036988 -640.94693455 1472.85978929 -641.94761733 1472.85919111 C-657.3480799 1472.85052861 -672.74845919 1472.86202229 -688.14890868 1472.88183086 C-703.27949497 1472.90087039 -718.40995228 1472.89860231 -733.54053101 1472.87341841 C-742.41922402 1472.85928146 -751.29754697 1472.86165195 -760.17621389 1472.88811517 C-766.06711336 1472.90404181 -771.95773168 1472.89834981 -777.84860515 1472.8748159 C-781.19202583 1472.86207081 -784.53411345 1472.86204124 -787.87758876 1472.88195031 C-791.46926521 1472.9018874 -795.05895368 1472.88508829 -798.65054697 1472.85892451 C-800.1964785 1472.88079559 -800.1964785 1472.88079559 -801.77364097 1472.90310852 C-808.91847261 1472.79506322 -813.68325328 1470.94190269 -819.01196289 1466.10913086 C-824.44403409 1459.17741134 -825.82729008 1452.83027366 -825.01196289 1444.10913086 C-822.83872072 1436.84864635 -819.05390668 1430.30941366 -815.26196289 1423.79663086 C-814.096447 1421.76491184 -812.93245635 1419.73231729 -811.76977539 1417.69897461 C-811.15779297 1416.63018066 -810.54581055 1415.56138672 -809.9152832 1414.46020508 C-806.60037968 1408.62383183 -803.37055151 1402.74077776 -800.13696289 1396.85913086 C-798.77666589 1394.38756736 -797.41583259 1391.91629935 -796.05493164 1389.44506836 C-795.7179274 1388.83296005 -795.38092316 1388.22085175 -795.03370667 1387.5901947 C-789.67677503 1377.86417379 -784.27249158 1368.16437612 -778.87524414 1358.46069336 C-776.99217418 1355.07353608 -775.11113116 1351.68526089 -773.23071289 1348.29663086 C-767.19996404 1337.43038867 -761.15592848 1326.5720789 -755.07446289 1315.73413086 C-749.35145109 1305.53216983 -743.69004712 1295.29706638 -738.0456543 1285.05151367 C-731.68256938 1273.50243696 -725.28010891 1261.97541866 -718.87084961 1250.4519043 C-716.37545807 1245.96452566 -713.88197923 1241.47608575 -711.38867188 1236.98754883 C-710.13965135 1234.7390844 -708.8904657 1232.49071167 -707.64111328 1230.24243164 C-704.48865826 1224.56924644 -701.33826159 1218.89493465 -698.19165039 1213.21850586 C-692.29992277 1202.59453658 -686.38742359 1191.98462038 -680.38696289 1181.42163086 C-675.43516573 1172.7012761 -670.63384098 1163.90737145 -665.87988281 1155.07788086 C-661.71493332 1147.36071302 -657.42700799 1139.7199209 -653.09350586 1132.09643555 C-648.71542067 1124.38297673 -644.4140746 1116.62882344 -640.13696289 1108.85913086 C-639.80063843 1108.2482663 -639.46431396 1107.63740173 -639.11779785 1107.00802612 C-638.61246521 1106.09018845 -638.61246521 1106.09018845 -638.09692383 1105.15380859 C-637.41627196 1103.91755514 -636.7356079 1102.68130839 -636.05493164 1101.44506836 C-635.71797272 1100.83303055 -635.38101379 1100.22099274 -635.03384399 1099.59040833 C-631.52122439 1093.21303541 -627.98723661 1086.84758022 -624.44946289 1080.48413086 C-623.83401611 1079.3769873 -623.21856934 1078.26984375 -622.58447266 1077.12915039 C-620.1093553 1072.6775098 -617.63339672 1068.22633734 -615.1574707 1063.77514648 C-613.29607695 1060.42835856 -611.43510431 1057.0813371 -609.57446289 1053.73413086 C-608.95893555 1052.62682617 -608.3434082 1051.51952148 -607.70922852 1050.37866211 C-602.76457681 1041.47725998 -597.84784791 1032.560658 -592.93460083 1023.64190674 C-587.76338903 1014.25736324 -582.54421241 1004.90054138 -577.29858398 995.55737305 C-572.85553912 987.6354705 -568.45712618 979.68952291 -564.07446289 971.73413086 C-553.54518369 952.62330207 -542.94937474 933.55018014 -532.27880859 914.51782227 C-526.12344153 903.53405568 -520.0125507 892.52569667 -513.90307617 881.51635742 C-510.77451236 875.87961115 -507.64306744 870.24446605 -504.51196289 864.60913086 C-503.89256836 863.4940918 -503.27317383 862.37905273 -502.63500977 861.23022461 C-499.52370398 855.62922668 -496.41141256 850.0287807 -493.29711914 844.42944336 C-486.84892354 832.83352858 -480.41699324 821.22892761 -474.01196289 809.60913086 C-466.99251495 796.87467778 -459.93871564 784.15955925 -452.87084961 771.4519043 C-449.7493794 765.83866946 -446.63082599 760.22381456 -443.51196289 754.60913086 C-442.26197671 752.35912318 -441.01197671 750.10912318 -439.76196289 747.85913086 C-439.14321289 746.74538086 -438.52446289 745.63163086 -437.88696289 744.48413086 C-432.26196289 734.35913086 -432.26196289 734.35913086 -430.38720703 730.98461914 C-429.13633796 728.73302224 -427.88552422 726.4813946 -426.63476562 724.22973633 C-423.5235138 718.62891641 -420.41132419 713.02862181 -417.29711914 707.42944336 C-410.84892354 695.83352858 -404.41699324 684.22892761 -398.01196289 672.60913086 C-390.99251495 659.87467778 -383.93871564 647.15955925 -376.87084961 634.4519043 C-374.37554643 629.96468455 -371.88216258 625.47639982 -369.38891602 620.98803711 C-367.5147879 617.61421646 -365.6403288 614.24057982 -363.76586914 610.86694336 C-361.25168655 606.34154568 -358.73878897 601.81543771 -356.22680664 597.28881836 C-350.19701184 586.42537558 -344.15450435 575.56954092 -338.07446289 564.73413086 C-332.35145109 554.53216983 -326.69004712 544.29706638 -321.0456543 534.05151367 C-314.68256938 522.50243696 -308.28010891 510.97541866 -301.87084961 499.4519043 C-298.7493794 493.83866946 -295.63082599 488.22381456 -292.51196289 482.60913086 C-291.26197671 480.35912318 -290.01197671 478.10912318 -288.76196289 475.85913086 C-287.83383789 474.18850586 -287.83383789 474.18850586 -286.88696289 472.48413086 C-206.26196289 327.35913086 -206.26196289 327.35913086 -204.38720703 323.98461914 C-203.13633796 321.73302224 -201.88552422 319.4813946 -200.63476562 317.22973633 C-197.5235138 311.62891641 -194.41132419 306.02862181 -191.29711914 300.42944336 C-190.05615009 298.19771903 -188.81526482 295.96594811 -187.57446289 293.73413086 C-186.65238037 292.07559082 -186.65238037 292.07559082 -185.71166992 290.38354492 C-182.45374258 284.51910607 -179.2044981 278.6500247 -175.96899414 272.77319336 C-175.63211578 272.16135696 -175.29523743 271.54952057 -174.94815063 270.91914368 C-174.26747276 269.68284299 -173.58679853 268.44654029 -172.90612793 267.2102356 C-172.56980347 266.59937103 -172.233479 265.98850647 -171.88696289 265.35913086 C-171.55144409 264.74963593 -171.21592529 264.14014099 -170.87023926 263.51217651 C-165.89136099 254.47139994 -160.83735584 245.47565025 -155.73632812 236.50317383 C-151.3195732 228.70970541 -147.05988516 220.83629373 -142.81591797 212.94775391 C-138.83707816 205.57458067 -134.71450393 198.29519643 -130.52905273 191.0378418 C-126.76887733 184.49358373 -123.1502607 177.88070049 -119.57446289 171.23413086 C-114.85441862 162.46232373 -110.02210213 153.7644912 -105.09814453 145.10571289 C-100.67147579 137.30870203 -96.3320738 129.465429 -92.01196289 121.60913086 C-87.22935123 112.91330582 -82.41324212 104.23886413 -77.51196289 95.60913086 C-72.6815951 87.09994655 -67.92120948 78.55389544 -63.19946289 69.98413086 C-62.69897934 69.07597626 -62.69897934 69.07597626 -62.18838501 68.1494751 C-59.09435284 62.53404484 -56.00412536 56.91652735 -52.91821289 51.29663086 C-39.15287752 26.22913784 -39.15287752 26.22913784 -32.82446289 15.10913086 C-32.40318115 14.35615723 -31.98189941 13.60318359 -31.54785156 12.82739258 C-24.61491215 0.77242958 -13.64477583 -6.1951993 0 0 Z " fill="#FEFEFE" transform="translate(1976.011962890625,223.890869140625)"/>
<path d="M0 0 C1.35841264 -0.00330618 2.71682432 -0.00703332 4.07523477 -0.01114148 C7.78427235 -0.02108312 11.49329375 -0.02486548 15.20234275 -0.02753079 C19.21206065 -0.03145708 23.22176601 -0.04103334 27.23147583 -0.04974365 C36.90043364 -0.06943819 46.5693924 -0.07956331 56.23836523 -0.08847144 C60.79986517 -0.09286406 65.36136397 -0.09822816 69.92286301 -0.10346031 C85.09835125 -0.12046219 100.2738388 -0.13495597 115.4493351 -0.14220905 C119.38080471 -0.14411869 123.31227431 -0.14603907 127.2437439 -0.147995 C128.22079479 -0.14847874 129.19784568 -0.14896248 130.20450418 -0.14946087 C146.02961888 -0.15776009 161.85465797 -0.18309985 177.67973967 -0.21557567 C193.95231359 -0.24869595 210.22484912 -0.26666212 226.49745691 -0.26985329 C235.62380635 -0.2720133 244.75004538 -0.28068772 253.87636185 -0.30631447 C261.64833988 -0.3280891 269.42018063 -0.3360386 277.19218571 -0.32634769 C281.15171577 -0.3218231 285.11096295 -0.32358101 289.07045364 -0.34310913 C319.6096885 -0.48528168 319.6096885 -0.48528168 332.37704468 4.14717102 C334.23387343 4.81468148 334.23387343 4.81468148 336.12821388 5.49567699 C355.20928477 12.71502926 368.62765696 26.45464375 378.37704468 44.14717102 C379.11954468 45.48715149 379.11954468 45.48715149 379.87704468 46.85420227 C388.33153212 63.63736634 389.00493097 85.5861674 383.62704468 103.42451477 C380.02271728 114.15865231 375.1582126 123.57814708 369.33407593 133.22138977 C365.84416657 139.00039234 362.49012823 144.85626007 359.12704468 150.70967102 C354.23636306 159.2041748 349.32316857 167.68483201 344.37704468 176.14717102 C336.99282596 188.78456436 329.682143 201.46392457 322.37704468 214.14717102 C314.50041879 227.82271416 306.60584376 241.4867806 298.64413452 255.11299133 C291.84116845 266.76376287 285.11062282 278.45620846 278.37704468 290.14717102 C270.50041879 303.82271416 262.60584376 317.4867806 254.64413452 331.11299133 C250.38721664 338.40339631 246.15656378 345.70862063 241.93954468 353.02217102 C241.32272827 354.09152893 240.70591187 355.16088684 240.07040405 356.26264954 C237.1602316 361.31040573 234.25358325 366.36014022 231.35554504 371.41487122 C230.34782509 373.17197584 229.33904288 374.92846626 228.32992554 376.68476868 C227.07208888 378.87462157 225.81623548 381.06561543 224.56283569 383.25801086 C210.69569103 407.38269851 195.45345539 423.86550105 167.63095093 431.42060852 C146.55679196 436.12624306 124.48813702 432.64290683 106.21298218 421.15888977 C103.5133759 419.24387981 100.93630581 417.24492605 98.37704468 415.14717102 C97.67321655 414.60576477 96.96938843 414.06435852 96.24423218 413.50654602 C83.62629747 403.31323406 76.19274632 387.63136868 68.25204468 373.83467102 C67.5953479 372.6953009 66.93865112 371.55593079 66.26205444 370.3820343 C62.2618436 363.4388073 58.28219428 356.48404484 54.31454468 349.52217102 C50.13139514 342.1823773 45.89383518 334.87613527 41.62704468 327.58467102 C36.48850181 318.80326448 31.41392152 309.98711067 26.37704468 301.14717102 C21.42326853 292.45314855 16.43335256 283.7821443 11.37704468 275.14717102 C5.97348008 265.91916573 0.65052107 256.64722432 -4.64346313 247.3561554 C-9.25798385 239.25972884 -13.91399326 231.18915645 -18.62295532 223.14717102 C-23.65485322 214.55199812 -28.62684657 205.9240488 -33.56045532 197.27217102 C-38.74737994 188.17637053 -43.94988648 179.09011591 -49.18545532 170.02217102 C-49.79663208 168.96336731 -50.40780884 167.9045636 -51.0375061 166.81367493 C-54.20312399 161.3316698 -57.3726544 155.85194616 -60.54483032 150.37373352 C-63.68865638 144.94331027 -66.8175747 139.50448694 -69.94082642 134.06221008 C-71.48224657 131.39101173 -73.04352817 128.73267857 -74.61123657 126.07685852 C-80.07713473 116.7082914 -84.00836072 107.68547154 -86.62295532 97.14717102 C-86.86658813 96.17392883 -87.11022095 95.20068665 -87.36123657 94.19795227 C-91.57577542 74.55877466 -86.89828915 54.88732982 -76.50967407 37.96357727 C-73.48339413 33.44608691 -70.19190183 29.24644291 -66.62295532 25.14717102 C-66.1047522 24.53357727 -65.58654907 23.91998352 -65.05264282 23.28779602 C-48.21784359 4.84565415 -23.76934972 -0.00352273 0 0 Z " fill="#D95F5F" transform="translate(1816.6229553222656,1167.8528289794922)"/>
<path d="M0 0 C2.30724841 -0.00406936 4.61449487 -0.00941328 6.92173767 -0.01593018 C13.16554345 -0.02956688 19.40919995 -0.02431991 25.65300822 -0.01479292 C32.20036252 -0.00717654 38.74770438 -0.01424751 45.2950592 -0.01895142 C56.9929554 -0.02535105 68.69078903 -0.01545173 80.38867439 -0.0001734 C90.97464456 0.01322517 101.56051599 0.01090241 112.14648438 -0.00292969 C124.46571492 -0.01901921 136.78488259 -0.02494146 149.10412222 -0.0160929 C155.61570801 -0.01142696 162.12722593 -0.01076174 168.6388073 -0.02070236 C174.76286744 -0.02939892 180.88674204 -0.0233009 187.01078224 -0.00601959 C189.25204028 -0.00206894 191.49331406 -0.00316428 193.73456573 -0.00980759 C214.03098671 -0.06439951 231.86351147 2.24940217 247.09790039 17.00927734 C258.68060953 29.65062119 263.98989314 44.11282746 263.59008789 61.06787109 C262.78478963 76.30814061 253.83079352 89.63356089 246.23461914 102.39208984 C242.77569304 108.21234114 239.40380568 114.08219693 236.02758789 119.95068359 C231.13637303 128.44488199 226.22380211 136.92589281 221.27758789 145.38818359 C216.41651208 153.7056737 211.5861058 162.04019993 206.77758789 170.38818359 C201.96906945 178.73616818 197.13853106 187.07061543 192.27758789 195.38818359 C185.53641565 206.92521023 178.85591842 218.4967018 172.1862793 230.07519531 C170.25273344 233.4313244 168.3181262 236.78683907 166.38305664 240.14208984 C165.74352051 241.25100586 165.10398437 242.35992187 164.44506836 243.50244141 C163.17780437 245.69877415 161.90991188 247.89474438 160.64135742 250.09033203 C157.78173557 255.0403473 154.92893809 259.99374779 152.10180664 264.96240234 C151.61099609 265.82099854 151.12018555 266.67959473 150.61450195 267.56420898 C149.72278175 269.12471935 148.83498236 270.6874814 147.95239258 272.25317383 C139.87925532 286.34206893 130.27212428 296.01377815 115.27758789 302.38818359 C114.46805664 302.75041016 113.65852539 303.11263672 112.82446289 303.48583984 C100.82239607 307.99710622 86.36948735 306.42656218 74.64868164 301.93505859 C52.71316137 291.86962866 43.07853311 272.10721328 31.91430664 251.91943359 C28.47503844 245.71201876 24.92990212 239.5720109 21.34008789 233.45068359 C20.17207474 231.45722003 19.00410631 229.46373025 17.83618164 227.47021484 C17.2520752 226.47328613 16.66796875 225.47635742 16.06616211 224.44921875 C7.36843371 209.56358967 -1.18547047 194.59407831 -9.73110962 179.62078857 C-16.40507337 167.9278667 -23.12753252 156.26324751 -29.86352539 144.60595703 C-31.73295287 141.3699373 -33.60100466 138.13312782 -35.46850586 134.89599609 C-36.08846436 133.82140137 -36.70842285 132.74680664 -37.34716797 131.63964844 C-38.59192361 129.48138056 -39.83623099 127.32285409 -41.08007812 125.1640625 C-44.29225878 119.59088904 -47.51457786 114.02388652 -50.75366211 108.46630859 C-76.02417939 65.0459853 -76.02417939 65.0459853 -69.91772461 40.45458984 C-64.12411349 24.13258887 -52.80484198 12.52613037 -37.54272461 4.93115234 C-36.27658067 4.39912729 -35.00252223 3.88566648 -33.72241211 3.38818359 C-33.06884955 3.12640005 -32.415287 2.86461651 -31.74191952 2.59490013 C-21.50229538 -0.81618484 -10.65440942 -0.03154962 0 0 Z " fill="#FEFEFE" transform="translate(2685.722412109375,221.61181640625)"/>
<path d="M0 0 C2.30724841 -0.00406936 4.61449487 -0.00941328 6.92173767 -0.01593018 C13.16554345 -0.02956688 19.40919995 -0.02431991 25.65300822 -0.01479292 C32.20036252 -0.00717654 38.74770438 -0.01424751 45.2950592 -0.01895142 C56.9929554 -0.02535105 68.69078903 -0.01545173 80.38867439 -0.0001734 C90.97464456 0.01322517 101.56051599 0.01090241 112.14648438 -0.00292969 C124.46571492 -0.01901921 136.78488259 -0.02494146 149.10412222 -0.0160929 C155.61570801 -0.01142696 162.12722593 -0.01076174 168.6388073 -0.02070236 C174.76286744 -0.02939892 180.88674204 -0.0233009 187.01078224 -0.00601959 C189.25204028 -0.00206894 191.49331406 -0.00316428 193.73456573 -0.00980759 C214.03098671 -0.06439951 231.86351147 2.24940217 247.09790039 17.00927734 C258.68060953 29.65062119 263.98989314 44.11282746 263.59008789 61.06787109 C262.78478963 76.30814061 253.83079352 89.63356089 246.23461914 102.39208984 C242.77569304 108.21234114 239.40380568 114.08219693 236.02758789 119.95068359 C231.13637303 128.44488199 226.22380211 136.92589281 221.27758789 145.38818359 C216.41651208 153.7056737 211.5861058 162.04019993 206.77758789 170.38818359 C201.96906945 178.73616818 197.13853106 187.07061543 192.27758789 195.38818359 C185.53641565 206.92521023 178.85591842 218.4967018 172.1862793 230.07519531 C170.25273344 233.4313244 168.3181262 236.78683907 166.38305664 240.14208984 C165.74352051 241.25100586 165.10398437 242.35992187 164.44506836 243.50244141 C163.17780437 245.69877415 161.90991188 247.89474438 160.64135742 250.09033203 C157.78173557 255.0403473 154.92893809 259.99374779 152.10180664 264.96240234 C151.61099609 265.82099854 151.12018555 266.67959473 150.61450195 267.56420898 C149.72278175 269.12471935 148.83498236 270.6874814 147.95239258 272.25317383 C139.87925532 286.34206893 130.27212428 296.01377815 115.27758789 302.38818359 C114.46805664 302.75041016 113.65852539 303.11263672 112.82446289 303.48583984 C100.82239607 307.99710622 86.36948735 306.42656218 74.64868164 301.93505859 C52.71316137 291.86962866 43.07853311 272.10721328 31.91430664 251.91943359 C28.47503844 245.71201876 24.92990212 239.5720109 21.34008789 233.45068359 C20.17207474 231.45722003 19.00410631 229.46373025 17.83618164 227.47021484 C17.2520752 226.47328613 16.66796875 225.47635742 16.06616211 224.44921875 C7.36843371 209.56358967 -1.18547047 194.59407831 -9.73110962 179.62078857 C-16.40507337 167.9278667 -23.12753252 156.26324751 -29.86352539 144.60595703 C-31.73295287 141.3699373 -33.60100466 138.13312782 -35.46850586 134.89599609 C-36.08846436 133.82140137 -36.70842285 132.74680664 -37.34716797 131.63964844 C-38.59192361 129.48138056 -39.83623099 127.32285409 -41.08007812 125.1640625 C-44.29225878 119.59088904 -47.51457786 114.02388652 -50.75366211 108.46630859 C-76.02417939 65.0459853 -76.02417939 65.0459853 -69.91772461 40.45458984 C-64.12411349 24.13258887 -52.80484198 12.52613037 -37.54272461 4.93115234 C-36.27658067 4.39912729 -35.00252223 3.88566648 -33.72241211 3.38818359 C-33.06884955 3.12640005 -32.415287 2.86461651 -31.74191952 2.59490013 C-21.50229538 -0.81618484 -10.65440942 -0.03154962 0 0 Z " fill="#FEFEFE" transform="translate(1054.722412109375,221.61181640625)"/>
</svg>
