<?xml version="1.0" encoding="UTF-8"?>
<!DOCTYPE svg PUBLIC "-//W3C//DTD SVG 1.1//EN" "http://www.w3.org/Graphics/SVG/1.1/DTD/svg11.dtd">
<svg xmlns="http://www.w3.org/2000/svg" version="1.1" width="3346px" height="751px" style="shape-rendering:geometricPrecision; text-rendering:geometricPrecision; image-rendering:optimizeQuality; fill-rule:evenodd; clip-rule:evenodd" xmlns:xlink="http://www.w3.org/1999/xlink">
<g><path style="opacity:0.995" fill="#d95e5e" d="M 2650.5,-0.5 C 2653.17,-0.5 2655.83,-0.5 2658.5,-0.5C 2696.14,1.97263 2723.64,19.9726 2741,53.5C 2755.29,98.2971 2742.79,133.464 2703.5,159C 2669.46,176.225 2635.79,175.558 2602.5,157C 2565.28,130.678 2554.12,95.8445 2569,52.5C 2586.29,19.6068 2613.46,1.94016 2650.5,-0.5 Z"/></g>
<g><path style="opacity:0.995" fill="#d95f5f" d="M 108.5,51.5 C 345.5,51.3333 582.5,51.5 819.5,52C 822.232,52.3981 824.065,53.8981 825,56.5C 825.667,59.5 825.667,62.5 825,65.5C 813,86.1667 801,106.833 789,127.5C 787.813,129.044 787.48,130.711 788,132.5C 834,178.5 880,224.5 926,270.5C 928.185,276.645 927.852,282.645 925,288.5C 775.041,438.459 624.541,588.959 473.5,740C 467.167,743.333 460.833,743.333 454.5,740C 303.459,588.959 152.959,438.459 3,288.5C 0.0774779,282.675 -0.255855,276.675 2,270.5C 48,224.5 94,178.5 140,132.5C 140.257,129.983 139.59,127.65 138,125.5C 126.347,105.532 114.68,85.5322 103,65.5C 101.29,59.2761 103.123,54.6094 108.5,51.5 Z"/></g>
<g><path style="opacity:0.998" fill="#d95e5e" d="M 986.5,50.5 C 1048.83,50.5 1111.17,50.5 1173.5,50.5C 1173.17,138.503 1173.5,226.503 1174.5,314.5C 1206.45,243.831 1261.45,211.664 1339.5,218C 1408.35,226.561 1458.85,261.394 1491,322.5C 1508.81,357.718 1519.14,395.051 1522,434.5C 1526.45,480.787 1524.45,526.787 1516,572.5C 1506.01,624.67 1481.84,668.837 1443.5,705C 1394.6,744.058 1339.26,757.391 1277.5,745C 1229.4,732.873 1195.57,704.04 1176,658.5C 1174.64,657.62 1173.14,657.286 1171.5,657.5C 1171.5,685.833 1171.5,714.167 1171.5,742.5C 1109.83,742.5 1048.17,742.5 986.5,742.5C 986.5,511.833 986.5,281.167 986.5,50.5 Z M 1244.5,360.5 C 1280.7,360.191 1305.53,376.858 1319,410.5C 1335.61,459.158 1335.61,507.825 1319,556.5C 1297.71,602.378 1263.54,615.878 1216.5,597C 1195.76,583.061 1182.26,563.894 1176,539.5C 1167.49,504.516 1166.82,469.516 1174,434.5C 1179.21,408.213 1192.38,387.047 1213.5,371C 1223.18,365.173 1233.52,361.673 1244.5,360.5 Z"/></g>
<g><path style="opacity:1" fill="#fefcfc" d="M 241.5,103.5 C 261.169,103.333 280.836,103.5 300.5,104C 309.656,107.146 312.823,113.313 310,122.5C 301.667,137.167 293.333,151.833 285,166.5C 281.125,174.132 274.958,176.965 266.5,175C 264.391,173.859 262.558,172.359 261,170.5C 251.414,154.329 242.08,137.996 233,121.5C 232.333,118.5 232.333,115.5 233,112.5C 235.362,108.973 238.196,105.973 241.5,103.5 Z"/></g>
<g><path style="opacity:1" fill="#fefefe" d="M 461.5,103.5 C 466.489,103.318 469.655,105.651 471,110.5C 533.104,222.376 594.937,334.376 656.5,446.5C 656.124,448.383 655.124,449.883 653.5,451C 527.167,451.667 400.833,451.667 274.5,451C 271.913,449.475 271.08,447.308 272,444.5C 334.643,330.548 397.81,216.881 461.5,103.5 Z"/></g>
<g><path style="opacity:1" fill="#fefcfc" d="M 626.5,103.5 C 645.836,103.333 665.17,103.5 684.5,104C 693.36,106.542 696.86,112.375 695,121.5C 685.232,138.927 675.065,156.094 664.5,173C 656.975,177.204 650.475,176.037 645,169.5C 635.146,153.125 625.812,136.458 617,119.5C 616.32,111.858 619.486,106.524 626.5,103.5 Z"/></g>
<g><path style="opacity:0.998" fill="#d85e5e" d="M 1866.5,217.5 C 1887.51,215.853 1908.01,218.187 1928,224.5C 1928.5,277.499 1928.67,330.499 1928.5,383.5C 1897.18,375.063 1865.51,373.23 1833.5,378C 1799.63,387.868 1777.8,409.702 1768,443.5C 1766.48,449.752 1765.48,456.086 1765,462.5C 1764.5,555.833 1764.33,649.166 1764.5,742.5C 1702.17,742.5 1639.83,742.5 1577.5,742.5C 1577.5,569.5 1577.5,396.5 1577.5,223.5C 1637.83,223.333 1698.17,223.5 1758.5,224C 1759.5,256.76 1759.83,289.593 1759.5,322.5C 1761.14,322.714 1762.64,322.38 1764,321.5C 1770.69,290.279 1785.52,263.779 1808.5,242C 1825.7,228.66 1845.03,220.494 1866.5,217.5 Z"/></g>
<g><path style="opacity:0.997" fill="#d95e5e" d="M 3143.5,217.5 C 3184.46,213.857 3222.79,222.023 3258.5,242C 3302.16,271.105 3328.99,311.605 3339,363.5C 3340.99,373.75 3342.32,384.084 3343,394.5C 3343.5,510.5 3343.67,626.5 3343.5,742.5C 3281.17,742.5 3218.83,742.5 3156.5,742.5C 3156.97,639.485 3156.47,536.485 3155,433.5C 3148.51,392.34 3124.51,371.006 3083,369.5C 3043.86,370.234 3019.52,389.567 3010,427.5C 3009.06,433.803 3008.39,440.137 3008,446.5C 3007.5,545.166 3007.33,643.833 3007.5,742.5C 2945.17,742.5 2882.83,742.5 2820.5,742.5C 2820.5,569.5 2820.5,396.5 2820.5,223.5C 2882.17,223.5 2943.83,223.5 3005.5,223.5C 3005.5,256.5 3005.5,289.5 3005.5,322.5C 3006.83,322.5 3008.17,322.5 3009.5,322.5C 3027.94,267.895 3065.27,234.062 3121.5,221C 3128.96,219.7 3136.29,218.533 3143.5,217.5 Z"/></g>
<g><path style="opacity:0.998" fill="#d95e5e" d="M 1966.5,223.5 C 2029.17,223.5 2091.83,223.5 2154.5,223.5C 2154.02,328.19 2154.52,432.857 2156,537.5C 2163.34,576.172 2186.67,596.172 2226,597.5C 2264.94,597.394 2289.6,578.727 2300,541.5C 2300.76,537.181 2301.43,532.848 2302,528.5C 2302.5,426.834 2302.67,325.167 2302.5,223.5C 2365.17,223.5 2427.83,223.5 2490.5,223.5C 2490.5,396.5 2490.5,569.5 2490.5,742.5C 2430.83,742.5 2371.17,742.5 2311.5,742.5C 2311.5,709.833 2311.5,677.167 2311.5,644.5C 2309.86,644.286 2308.36,644.62 2307,645.5C 2283.92,704.818 2240.75,738.985 2177.5,748C 2136.22,753.342 2096.88,747.008 2059.5,729C 2004.03,695.285 1973.53,645.785 1968,580.5C 1966.54,461.511 1966.04,342.511 1966.5,223.5 Z"/></g>
<g><path style="opacity:0.997" fill="#d85e5e" d="M 2561.5,223.5 C 2623.83,223.5 2686.17,223.5 2748.5,223.5C 2748.5,396.5 2748.5,569.5 2748.5,742.5C 2686.17,742.5 2623.83,742.5 2561.5,742.5C 2561.5,569.5 2561.5,396.5 2561.5,223.5 Z"/></g>
<g><path style="opacity:1" fill="#d95f5f" d="M 420.5,327.5 C 449.169,327.333 477.835,327.5 506.5,328C 518.628,333.099 522.461,341.933 518,354.5C 504.828,376.173 492.161,398.173 480,420.5C 474.164,427.779 466.664,430.279 457.5,428C 453.759,426.262 450.592,423.762 448,420.5C 434.46,397.415 421.46,374.082 409,350.5C 406.99,339.853 410.823,332.186 420.5,327.5 Z"/></g>
</svg>
