<svg width="610" height="137" viewBox="0 0 610 137" fill="none" xmlns="http://www.w3.org/2000/svg">
<path d="M280.244 49.2019C273.64 45.1368 266.148 43.0964 257.769 43.0964C251.726 43.0964 246.166 44.2334 241.119 46.523C238.503 47.7067 236.135 49.1396 234.001 50.8217L233.752 2.60105C233.752 1.15256 232.569 0 231.136 0H208.225C206.776 0 205.608 1.16813 205.608 2.61661V132.155C205.608 133.666 206.823 134.881 208.334 134.881H231.011C232.522 134.881 233.737 133.666 233.737 132.155V128.199C235.87 130.021 238.285 131.61 240.948 132.95C246.01 135.473 251.617 136.75 257.785 136.75C266.18 136.75 273.702 134.678 280.353 130.551C287.019 126.424 292.221 120.863 295.99 113.901C299.76 106.939 301.629 98.949 301.629 89.9309C301.629 80.9129 299.713 72.9073 295.897 65.8829C292.065 58.8585 286.863 53.2982 280.26 49.2331L280.244 49.2019ZM270.058 100.834C268.267 104.042 265.868 106.534 262.847 108.325C259.825 110.116 256.398 111.004 252.583 111.004C248.767 111.004 245.153 110.147 242.132 108.419C239.11 106.69 236.727 104.198 235.014 100.927C233.285 97.6562 232.428 93.9337 232.428 89.7285C232.428 85.7879 233.254 82.2056 234.92 78.9972C236.587 75.7887 238.954 73.2967 242.038 71.5055C245.122 69.7144 248.642 68.8266 252.583 68.8266C256.523 68.8266 259.825 69.7299 262.847 71.5055C265.868 73.2967 268.267 75.7887 270.058 78.9972C271.849 82.2056 272.737 85.8502 272.737 89.9154C272.737 93.9805 271.833 97.6251 270.058 100.834Z" fill="#FF5569"/>
<path d="M374.053 45.0432C370.783 43.7504 366.998 43.0963 362.668 43.0963C352.918 43.0963 345.239 45.9933 339.632 51.7872C339.601 51.8184 339.57 51.8495 339.539 51.8807V47.6598C339.539 46.149 338.324 44.9341 336.813 44.9341H313.778C312.267 44.9341 311.052 46.149 311.052 47.6598V132.139C311.052 133.65 312.267 134.865 313.778 134.865H336.813C338.324 134.865 339.539 133.65 339.539 132.139V85.6476C339.539 79.8536 340.925 75.5082 343.698 72.5956C346.47 69.6986 350.27 68.2501 355.083 68.2501C357.419 68.2501 359.522 68.6239 361.375 69.356C362.247 69.6986 363.026 70.1036 363.743 70.5553C365.035 71.3963 366.749 71.1316 367.699 69.9323L381.14 52.7996C382.043 51.647 381.857 49.9805 380.735 49.0304C378.742 47.3327 376.514 45.9933 374.053 45.0276V45.0432Z" fill="#FF5569"/>
<path d="M467.847 44.9495H444.78C443.285 44.9495 442.054 46.1644 442.054 47.6752V96.5812C442.054 101.269 440.855 104.976 438.441 107.686C436.042 110.396 432.74 111.751 428.535 111.751C425.7 111.751 423.224 111.128 421.137 109.898C419.034 108.667 417.43 106.907 416.324 104.618C415.218 102.344 414.658 99.6494 414.658 96.5656V47.6596C414.658 46.1644 413.443 44.934 411.932 44.934H388.881C387.386 44.934 386.155 46.1488 386.155 47.6596V96.9394C386.155 104.711 387.946 111.596 391.529 117.576C395.111 123.557 400.126 128.277 406.605 131.734C413.084 135.192 420.389 136.921 428.535 136.921C436.681 136.921 444.266 135.223 450.558 131.828C456.851 128.432 461.757 123.744 465.277 117.763C468.797 111.783 470.557 104.836 470.557 96.9394V47.6596C470.557 46.1644 469.342 44.934 467.831 44.934L467.847 44.9495Z" fill="#FF5569"/>
<path d="M482.393 44.9508C480.883 44.9508 479.668 46.1656 479.668 47.6764V132.172C479.668 133.667 480.883 134.882 482.378 134.882H505.46C506.955 134.882 508.17 133.667 508.17 132.172V47.6764C508.17 46.1656 506.955 44.9508 505.445 44.9508H482.393Z" fill="#FF5569"/>
<path d="M605.126 60.2134C602.166 54.9645 598.086 50.806 592.915 47.7221C587.728 44.6382 581.872 43.0963 575.33 43.0963C568.415 43.0963 562.216 44.5448 556.734 47.4417C554.242 48.7656 551.999 50.3387 549.974 52.161V47.6754C549.974 46.1646 548.744 44.9341 547.233 44.9341H524.213C522.702 44.9341 521.472 46.1646 521.472 47.6754V132.139C521.472 133.65 522.687 134.865 524.197 134.865H547.248C548.759 134.865 549.974 133.65 549.974 132.139V83.6073C549.974 80.5234 550.644 77.8133 552.014 75.4614C553.369 73.1252 555.223 71.3029 557.559 70.0101C559.895 68.7174 562.559 68.0632 565.518 68.0632C569.957 68.0632 573.664 69.5118 576.623 72.4087C579.582 75.3057 581.062 79.0437 581.062 83.6073V132.155C581.062 133.65 582.277 134.865 583.772 134.865H606.854C608.35 134.865 609.565 133.65 609.565 132.155V77.3149C609.565 71.1471 608.085 65.4466 605.126 60.1978V60.2134Z" fill="#FF5569"/>
<path d="M510.818 0.389772H475.338C473.049 0.389772 471.818 3.06869 473.298 4.81311L491.084 25.5592C492.128 26.7741 494.013 26.7741 495.072 25.5592L512.859 4.81311C514.354 3.06869 513.108 0.389772 510.818 0.389772Z" fill="#FF5569"/>
<path d="M155.908 21.0576C155.534 20.0297 155.799 18.8771 156.609 18.145L171.078 4.7037C172.885 3.02159 171.701 0 169.24 0H2.71124C0.250368 0 -0.933352 3.02159 0.87336 4.7037L15.3271 18.1295C16.137 18.8771 16.4017 20.0297 16.0124 21.0576L0.265932 53.7499C-0.248047 54.809 0.00116277 56.0706 0.857794 56.8649L84.1067 134.211C85.1035 135.13 86.6299 135.13 87.6267 134.211L171 56.7091C171.904 55.8681 172.168 54.513 171.623 53.4072L155.924 21.0732L155.908 21.0576ZM51.0252 33.1439L43.004 23.7988C41.5088 22.0544 42.7548 19.3755 45.0444 19.3755H60.9933C63.2828 19.3755 64.5133 22.0544 63.0336 23.7988L55.0124 33.1439C53.9689 34.3588 52.0843 34.3588 51.0252 33.1439ZM115.942 83.7632H92.6575C90.2278 83.7632 89.0596 80.7883 90.8352 79.1373L97.7973 72.6737H97.7661L99.1056 71.4277C100.897 69.7611 99.713 66.7707 97.2833 66.7707H74.4035C71.9582 66.7707 70.79 69.7611 72.5812 71.4277L73.9362 72.6893H73.905L80.836 79.1062C82.6271 80.7728 81.459 83.7788 78.9981 83.7788H55.7601C53.7041 83.7788 52.3802 81.5827 53.3615 79.7604L83.4526 23.83C84.4805 21.9143 87.2218 21.9143 88.2497 23.83L118.356 79.7604C119.338 81.5827 118.014 83.7788 115.958 83.7788L115.942 83.7632ZM128.683 23.7988L120.662 33.1439C119.618 34.3588 117.733 34.3588 116.674 33.1439L108.653 23.7988C107.158 22.0544 108.404 19.3755 110.693 19.3755H126.642C128.932 19.3755 130.162 22.0544 128.683 23.7988Z" fill="#FF5569"/>
</svg>
